<?xml version="1.0" encoding="UTF-8"?>
<svg id="Layer_1" xmlns="http://www.w3.org/2000/svg" version="1.1" viewBox="39 48 26 5">
  <!-- Generator: Adobe Illustrator 30.2.1, SVG Export Plug-In . SVG Version: 2.1.1 Build 1)  -->
  <defs>
    <style>
      .st0, .st1 {
        fill: #118c96;
      }

      .st1 {
        font-family: ExpoArabic-Bold, 'Expo Arabic';
        font-size: 2.95px;
        font-weight: 700;
      }

      .st2 {
        fill: none;
        stroke: #118c96;
        stroke-miterlimit: 10;
        stroke-width: .07px;
      }
    </style>
  </defs>
  <rect class="st2" x="37.18" y="47.67" width="24.08" height="4.73" rx="1.24" ry="1.24"/>
  <g>
    <path class="st0" d="M62.07,52.41h-.05s-.04-.03-.04-.03l-.35-.63-.39.31s-.06.02-.09,0c-.02-.01-.04-.04-.04-.07v-2.14s.02-.06.05-.07.06,0,.09.02l1.55,1.55s.03.06.01.09c-.01.02-.04.04-.07.04h-.49s.32.58.32.58c.02.04.01.09-.03.11l-.47.24Z"/>
    <path class="st0" d="M61.27,49.23s-.04.08-.07.08c-.04,0-.08-.03-.08-.08v-.46s.03-.08.07-.08c.04,0,.08.03.08.08v.46Z"/>
    <path class="st0" d="M60.58,49.93h-.46s-.08-.03-.08-.07c0-.04.03-.08.08-.08h.46s.07.04.08.07-.03.08-.07.08Z"/>
    <path class="st0" d="M62.28,49.93h-.47s-.07-.04-.08-.07c0-.04.03-.08.08-.08h.46s.08.03.08.07c0,.04-.03.08-.08.08Z"/>
    <path class="st0" d="M60.81,49.35s.03.08,0,.11-.08.03-.11,0l-.33-.33s-.03-.08,0-.11.08-.03.11,0l.32.32Z"/>
    <path class="st0" d="M61.69,49.46s-.08.03-.11,0-.03-.08,0-.11l.33-.33s.08-.03.11,0c.03.03.03.08,0,.11l-.32.32Z"/>
    <path class="st0" d="M60.48,50.67s-.08.03-.11,0-.03-.08,0-.11l.33-.33s.08-.03.11,0,.03.08,0,.11l-.32.32Z"/>
  </g>
  <text class="st1" transform="translate(39.52 50.93)"><tspan x="0" y="0">للتبـرع انقــــر هنا</tspan></text>
</svg>