<?xml version="1.0" encoding="UTF-8"?>
<svg id="Layer_1" xmlns="http://www.w3.org/2000/svg" xmlns:xlink="http://www.w3.org/1999/xlink" version="1.1" viewBox="40 42 20 16">
  <!-- Generator: Adobe Illustrator 30.2.1, SVG Export Plug-In . SVG Version: 2.1.1 Build 1)  -->
  <defs>
    <style>
      .st0 {
        fill: url(#radial-gradient30);
      }

      .st1 {
        fill: url(#radial-gradient23);
      }

      .st2 {
        fill: url(#radial-gradient22);
      }

      .st3 {
        fill: url(#radial-gradient20);
      }

      .st4 {
        fill: url(#radial-gradient26);
      }

      .st5 {
        fill: url(#radial-gradient25);
      }

      .st6 {
        fill: url(#radial-gradient24);
      }

      .st7 {
        fill: url(#radial-gradient27);
      }

      .st8 {
        fill: url(#radial-gradient21);
      }

      .st9 {
        fill: url(#radial-gradient28);
      }

      .st10 {
        fill: url(#radial-gradient29);
      }

      .st11 {
        fill: url(#radial-gradient16);
      }

      .st12 {
        fill: url(#radial-gradient17);
      }

      .st13 {
        fill: url(#radial-gradient12);
      }

      .st14 {
        fill: url(#radial-gradient15);
      }

      .st15 {
        fill: url(#radial-gradient18);
      }

      .st16 {
        fill: url(#radial-gradient10);
      }

      .st17 {
        fill: url(#radial-gradient19);
      }

      .st18 {
        fill: url(#radial-gradient13);
      }

      .st19 {
        fill: url(#radial-gradient11);
      }

      .st20 {
        fill: url(#radial-gradient14);
      }

      .st21 {
        fill: url(#radial-gradient);
      }

      .st22 {
        fill: url(#radial-gradient2);
      }

      .st22, .st23 {
        fill-rule: evenodd;
      }

      .st24 {
        fill: url(#radial-gradient1);
      }

      .st25 {
        fill: url(#radial-gradient6);
      }

      .st26 {
        fill: url(#radial-gradient9);
      }

      .st27 {
        fill: url(#radial-gradient8);
      }

      .st28 {
        fill: url(#radial-gradient3);
      }

      .st29 {
        fill: url(#radial-gradient4);
      }

      .st30 {
        fill: url(#radial-gradient7);
      }

      .st23, .st31 {
        fill: #adaeb0;
      }

      .st32 {
        fill: url(#radial-gradient5);
        opacity: .5;
      }
    </style>
    <radialGradient id="radial-gradient" cx="57.24" cy="47.02" fx="57.24" fy="47.02" r="14.09" gradientUnits="userSpaceOnUse">
      <stop offset=".03" stop-color="#3db9be"/>
      <stop offset=".44" stop-color="#00a1aa"/>
      <stop offset="1" stop-color="#008996"/>
    </radialGradient>
    <radialGradient id="radial-gradient1" cx="60.88" cy="44.15" fx="60.88" fy="44.15" r="14.09" xlink:href="#radial-gradient"/>
    <radialGradient id="radial-gradient2" cx="55.24" cy="43.11" fx="55.24" fy="43.11" r="14.09" xlink:href="#radial-gradient"/>
    <radialGradient id="radial-gradient3" cx="58.32" cy="50.76" fx="58.32" fy="50.76" r="9.55" xlink:href="#radial-gradient"/>
    <radialGradient id="radial-gradient4" cx="64.81" cy="54.43" fx="64.81" fy="54.43" r="17.21" gradientUnits="userSpaceOnUse">
      <stop offset="0" stop-color="#fff"/>
      <stop offset=".97" stop-color="#fff" stop-opacity="0"/>
    </radialGradient>
    <radialGradient id="radial-gradient5" cx="62.62" cy="54.75" fx="62.62" fy="54.75" r="13.73" xlink:href="#radial-gradient4"/>
    <radialGradient id="radial-gradient6" cx="64.8" cy="54.75" fx="64.8" fy="54.75" r="17.46" xlink:href="#radial-gradient4"/>
    <radialGradient id="radial-gradient7" cx="62.19" cy="52.34" fx="62.19" fy="52.34" r="12.59" xlink:href="#radial-gradient4"/>
    <radialGradient id="radial-gradient8" cx="62.19" cy="52.34" fx="62.19" fy="52.34" r="12.59" xlink:href="#radial-gradient4"/>
    <radialGradient id="radial-gradient9" cx="62.19" cy="52.34" fx="62.19" fy="52.34" r="12.59" xlink:href="#radial-gradient4"/>
    <radialGradient id="radial-gradient10" cx="42.39" cy="55.29" fx="42.39" fy="55.29" r="9.26" xlink:href="#radial-gradient4"/>
    <radialGradient id="radial-gradient11" cx="57.83" cy="51.74" fx="57.83" fy="51.74" r="11.02" xlink:href="#radial-gradient"/>
    <radialGradient id="radial-gradient12" cx="57.83" cy="51.74" fx="57.83" fy="51.74" r="11.02" xlink:href="#radial-gradient"/>
    <radialGradient id="radial-gradient13" cx="57.83" cy="51.74" fx="57.83" fy="51.74" r="11.02" xlink:href="#radial-gradient"/>
    <radialGradient id="radial-gradient14" cx="57.83" cy="51.74" fx="57.83" fy="51.74" r="11.02" xlink:href="#radial-gradient"/>
    <radialGradient id="radial-gradient15" cx="57.83" cy="51.74" fx="57.83" fy="51.74" r="11.02" xlink:href="#radial-gradient"/>
    <radialGradient id="radial-gradient16" cx="57.83" cy="51.74" fx="57.83" fy="51.74" r="11.02" xlink:href="#radial-gradient"/>
    <radialGradient id="radial-gradient17" cx="57.83" cy="51.74" fx="57.83" fy="51.74" r="11.02" xlink:href="#radial-gradient"/>
    <radialGradient id="radial-gradient18" cx="57.83" cy="51.74" fx="57.83" fy="51.74" r="11.02" xlink:href="#radial-gradient"/>
    <radialGradient id="radial-gradient19" cx="57.83" cy="51.74" fx="57.83" fy="51.74" r="11.02" xlink:href="#radial-gradient"/>
    <radialGradient id="radial-gradient20" cx="57.83" cy="51.74" fx="57.83" fy="51.74" r="11.02" xlink:href="#radial-gradient"/>
    <radialGradient id="radial-gradient21" cx="57.83" cy="51.74" fx="57.83" fy="51.74" r="11.02" xlink:href="#radial-gradient"/>
    <radialGradient id="radial-gradient22" cx="57.83" cy="51.74" fx="57.83" fy="51.74" r="11.02" xlink:href="#radial-gradient"/>
    <radialGradient id="radial-gradient23" cx="57.83" cy="51.74" fx="57.83" fy="51.74" r="11.02" xlink:href="#radial-gradient"/>
    <radialGradient id="radial-gradient24" cx="57.83" cy="51.74" fx="57.83" fy="51.74" r="11.02" xlink:href="#radial-gradient"/>
    <radialGradient id="radial-gradient25" cx="57.83" cy="51.74" fx="57.83" fy="51.74" r="11.02" xlink:href="#radial-gradient"/>
    <radialGradient id="radial-gradient26" cx="57.83" cy="51.74" fx="57.83" fy="51.74" r="11.02" xlink:href="#radial-gradient"/>
    <radialGradient id="radial-gradient27" cx="57.83" cy="51.74" fx="57.83" fy="51.74" r="11.02" xlink:href="#radial-gradient"/>
    <radialGradient id="radial-gradient28" cx="57.83" cy="51.74" fx="57.83" fy="51.74" r="11.02" xlink:href="#radial-gradient"/>
    <radialGradient id="radial-gradient29" cx="57.83" cy="51.74" fx="57.83" fy="51.74" r="11.02" xlink:href="#radial-gradient"/>
    <radialGradient id="radial-gradient30" cx="57.83" cy="51.74" fx="57.83" fy="51.74" r="11.02" xlink:href="#radial-gradient"/>
  </defs>
  <g>
    <circle class="st31" cx="54.7" cy="44.47" r=".7"/>
    <g>
      <path class="st21" d="M54.92,52.37s0-.09.01-.14c-.02,0-.04,0-.05,0-4.9.45-10.27-2.57-14.27.21,5.25-1.34,9.22,1.79,14.41.72.06-.01.12-.03.18-.04-.17-.21-.28-.47-.28-.76Z"/>
      <path class="st24" d="M59.38,50.86c-.74.35-1.44.68-2.24.93.1.17.16.37.16.58.75-.39,1.45-.89,2.09-1.51Z"/>
    </g>
    <circle class="st31" cx="56.11" cy="52.37" r=".7"/>
    <path class="st23" d="M50.35,47.49s-.21.06-.53.2c-.47.2-1.19.52-1.96.53-.82.01-1.45-.29-2.01-.47-.4-.13-.7-.18-.89-.17-.2.01-.51-.51.18-.56.64-.08,1.63.06,1.66,0,.02-.07-.49-.12-.9-.19-.28-.05-.52-.13-.52-.13,0,0-1.89.63-2.21.73-.32.1-.69-.19-.58-.25.11-.07,1.22-.91,2.56-1.3.36-.08,1.3-.35,2.39.03,1.33.46,2.81,1.6,2.81,1.6"/>
    <path class="st22" d="M42.42,48.77s.21-.06.53-.2c.47-.2,1.19-.52,1.96-.53.82-.01,1.44.29,2.01.47.4.13.69.18.89.17.19-.01.51.51-.18.56-.64.08-1.63-.06-1.66,0-.02.07.49.12.9.19.28.05.52.13.52.13,0,0,1.89-.63,2.21-.73.32-.1.68.19.58.25-.11.07-1.22.91-2.56,1.3-.36.08-1.3.35-2.39-.03-1.33-.46-2.81-1.6-2.81-1.6"/>
    <path class="st28" d="M56.95,45.86v3.08c0,.45-.36.81-.81.81s-.81-.37-.81-.81v-3.24l-1.39.16v3.08c0,.45-.36.81-.81.81s-.81-.37-.81-.81v-6.42l-1.39.16v6.26c0,1.22.99,2.21,2.21,2.21.58,0,1.11-.23,1.51-.6.4.37.92.6,1.51.6,1.22,0,2.21-.99,2.21-2.21v-3.24l-1.39.16Z"/>
    <g>
      <path class="st29" d="M57.14,51.79s0,0,0,0c.08.15.26.21.41.15.65-.28,1.26-.64,1.81-1.08-.73.35-1.43.67-2.23.93Z"/>
      <path class="st32" d="M56.1,51.67c-.3,0-.57.21-.66.5-.04.13-.04.24-.01.35.26-.03.51-.08.76-.14.41-.1.35-.71-.07-.71,0,0,0,0-.01,0Z"/>
      <path class="st25" d="M54.88,52.24c-1.05.1-2.12.03-3.2-.1.84.29,1.74.45,2.68.45.12,0,.24,0,.36,0s.2-.1.2-.21c0,0,0,0,0,0,0-.05,0-.09.01-.14-.02,0-.04,0-.05,0Z"/>
    </g>
    <g>
      <path class="st30" d="M55.32,45.7l-1.39.16v3.08s0,.08-.01.12c.49-.22.96-.47,1.4-.74v-2.63Z"/>
      <path class="st27" d="M52.3,48.94v-6.42l-1.39.16v6.26c0,.35.08.69.23.98.5-.1.98-.22,1.45-.36-.18-.15-.29-.37-.29-.62Z"/>
      <path class="st26" d="M56.95,45.86v1.21c.44-.42.82-.87,1.14-1.34l-1.14.13Z"/>
    </g>
    <path class="st16" d="M49.61,48.85c-.32.1-2.21.73-2.21.73,0,0-.24-.08-.52-.13-.42-.07-.92-.12-.9-.19.02-.06,1.02.08,1.66,0,.69-.05.38-.57.18-.56-.2.01-.49-.04-.89-.17-.57-.19-1.19-.49-2.01-.47-.77.01-1.49.32-1.96.53-.32.14-.53.2-.53.2,0,0,0,0,0,0,1.21.62,2.59,1.05,4.09,1.26,1.23.17,2.48-.13,3.51-.83.08-.06.14-.1.16-.11.11-.07-.26-.35-.58-.25Z"/>
  </g>
  <g>
    <path class="st19" d="M40.89,57.45c-.05-.12-.09-.24-.12-.37-.03-.13-.05-.25-.05-.37,0-.08,0-.16.03-.24.02-.08.05-.15.09-.21.04-.07.1-.12.17-.18.07-.05.16-.09.26-.13,0-.07,0-.15,0-.22,0-.07,0-.15,0-.22,0-.11.02-.21.06-.31.04-.1.1-.18.17-.26.07-.07.16-.13.26-.17.1-.04.2-.06.31-.06s.21.02.31.06c.1.04.18.1.25.17.07.07.13.16.17.26.04.1.06.2.06.31v.41c0,.11-.02.22-.06.31-.04.1-.1.18-.17.26-.08.08-.16.14-.25.17s-.16.05-.25.05c-.07,0-.15,0-.22-.03-.07-.02-.15-.04-.23-.07-.03-.01-.06-.02-.09-.03-.03,0-.06,0-.08,0-.06,0-.1.02-.14.05-.04.03-.06.09-.07.17,0,.07.01.15.04.26.03.11.08.24.16.39h-.62ZM41.84,56.03s.03.01.05.02c.02,0,.04.02.07.03.03,0,.06.01.08.02.03,0,.06,0,.09,0,.02,0,.05,0,.07,0,.02,0,.04-.02.06-.03.02-.02.03-.04.04-.06.01-.03.02-.06.02-.1v-.38s0-.08-.02-.11c-.01-.03-.03-.06-.05-.08-.02-.02-.05-.04-.08-.05-.03-.01-.06-.01-.09-.01-.03,0-.06,0-.09.02-.03.01-.06.03-.08.05-.02.02-.04.05-.06.08-.01.03-.02.07-.02.11v.51Z"/>
    <path class="st13" d="M43.15,54.11h.57v1.78s0,.07.02.1c.02.03.04.06.06.08.03.02.05.04.09.05.03.01.07.02.1.02v.57c-.12,0-.23-.02-.33-.06s-.19-.1-.27-.17c-.08-.07-.14-.16-.18-.25-.04-.1-.07-.2-.07-.31v-1.79Z"/>
    <path class="st18" d="M45.3,55.89s0,.07.02.1c.02.03.04.06.06.08.03.02.06.04.09.05s.07.02.1.02v.57c-.11,0-.22-.02-.31-.05-.1-.03-.18-.08-.25-.14-.07.06-.15.11-.25.14-.1.03-.66.05-.77.05v-.57s.53,0,.56-.02c.03-.01.06-.03.09-.05.03-.02.05-.05.06-.08.02-.03.02-.07.02-.1v-.85h.57v.85Z"/>
    <path class="st20" d="M46.71,55.9c0,.11-.02.22-.06.31-.04.1-.1.18-.17.25-.07.07-.16.13-.26.17-.1.04-.2.06-.31.06h-.37v-.57h.37s.06,0,.09-.02c.03-.01.05-.03.08-.05.02-.02.04-.05.05-.08.01-.03.02-.07.02-.1v-.85h.57v.85Z"/>
    <g>
      <circle class="st14" cx="46.11" cy="57.2" r=".28"/>
      <circle class="st11" cx="45.45" cy="57.2" r=".28"/>
    </g>
    <g>
      <circle class="st12" cx="52.73" cy="57.2" r=".28"/>
      <circle class="st15" cx="52.06" cy="57.2" r=".28"/>
    </g>
    <g>
      <circle class="st17" cx="45.35" cy="54.55" r=".28"/>
      <circle class="st3" cx="44.68" cy="54.55" r=".28"/>
    </g>
    <g>
      <circle class="st8" cx="51.34" cy="54.21" r=".28"/>
      <circle class="st2" cx="50.68" cy="54.21" r=".28"/>
    </g>
    <path class="st1" d="M47.43,53.96c-.06,0-.11,0-.16,0-.05,0-.11,0-.16,0-.05,0-.11,0-.16.02-.05,0-.11.02-.17.03l-.05-.25.16-.04c-.03-.06-.04-.11-.04-.17,0-.05.01-.09.03-.13.02-.04.05-.08.08-.11s.07-.05.12-.07c.04-.02.09-.03.13-.03.03,0,.07,0,.11.02.04.01.08.03.11.06l-.07.24s-.05-.02-.07-.02c-.02,0-.04-.01-.06-.01-.02,0-.03,0-.05,0-.02,0-.03.02-.03.03,0,.01-.01.02-.01.03,0,.02,0,.04.03.06.02.02.04.04.07.04.03,0,.06,0,.09,0,.01,0,.02,0,.04,0,.01,0,.02,0,.04,0,.01,0,.03,0,.05,0h.06l-.06.27ZM46.9,56.92v-.53c0-.1.02-.2.05-.29.03-.09.08-.17.13-.24s.12-.13.2-.19c.08-.05.16-.1.25-.13-.13-.19-.26-.39-.4-.58-.13-.2-.27-.39-.4-.58l.47-.32.81,1.19s.04-.1.04-.17v-.98h.57v.39s0,.03,0,.05c0,.02,0,.04,0,.05,0,.02,0,.05,0,.07,0,.02,0,.05,0,.07,0,.11,0,.23-.02.34-.01.11-.04.22-.07.33-.02.06-.06.12-.09.17-.04.05-.08.1-.12.15.05.1.08.19.1.27.02.09.03.17.03.24,0,.11-.02.2-.06.28-.04.08-.1.15-.17.21-.08.06-.17.1-.28.13-.11.03-.23.05-.37.05-.01,0-.02,0-.03,0-.01,0-.02,0-.03,0h-.64ZM47.72,56.36c.06,0,.12,0,.16-.03.04-.02.06-.06.06-.1,0-.02,0-.05-.02-.09-.01-.03-.03-.07-.05-.11-.05.01-.1.03-.14.04-.04.02-.08.04-.11.06-.03.03-.06.06-.08.09-.02.04-.04.08-.06.13h.24Z"/>
    <path class="st6" d="M49.57,54.11v1.77c0,.07,0,.15,0,.22,0,.08-.01.15-.03.23-.02.07-.04.15-.07.22-.03.07-.07.13-.12.18l-.38-.22c.01-.05.02-.1.03-.16,0-.06,0-.12,0-.19v-.04s0-.03,0-.05v-1.97h.57Z"/>
    <path class="st5" d="M50.8,55.89s0,.07.02.1.03.06.05.08c.02.02.05.04.08.05s.06.02.09.02h.11l-.19.56c-.1-.01-.2-.04-.29-.09-.09-.05-.17-.11-.23-.18-.07-.07-.12-.15-.15-.24-.04-.09-.06-.19-.06-.29v-.38c0-.11.02-.21.06-.31s.1-.18.17-.26c.07-.07.16-.13.26-.17.1-.04.2-.06.31-.06s.21.02.31.06c.1.04.18.1.26.17.07.07.13.16.17.26.04.1.06.2.06.31v.37s0,.07.02.1.04.06.06.08c.03.02.05.04.09.05s.07.02.1.02v.57c-.11,0-.22-.02-.32-.06-.1-.04-.19-.1-.27-.17-.08-.07-.14-.16-.18-.25-.05-.1-.07-.2-.07-.31v-.37s0-.08-.02-.11c-.01-.03-.03-.06-.05-.08-.02-.02-.05-.04-.08-.05-.03-.01-.06-.01-.09-.01-.03,0-.06,0-.09.02-.03.01-.05.03-.08.05-.02.02-.04.05-.05.08s-.02.07-.02.11v.37Z"/>
    <path class="st4" d="M53.26,55.9c0,.11-.02.22-.06.31-.04.1-.1.18-.17.25-.07.07-.16.13-.26.17-.1.04-.2.06-.31.06h-.37v-.57h.37s.06,0,.09-.02.05-.03.08-.05c.02-.02.04-.05.05-.08s.02-.07.02-.1v-.85h.57v.85Z"/>
    <path class="st7" d="M53.5,54.11h.57v1.78s0,.07.02.1c.02.03.04.06.06.08.03.02.05.04.09.05.03.01.07.02.1.02v.57c-.12,0-.23-.02-.33-.06s-.19-.1-.27-.17-.14-.16-.18-.25c-.04-.1-.07-.2-.07-.31v-1.79Z"/>
    <path class="st9" d="M57.31,56.7h-3v-.57h1.35c-.07-.14-.1-.29-.1-.45,0-.12.02-.24.06-.36.04-.12.09-.22.17-.31.07-.09.17-.17.27-.22.11-.06.23-.08.38-.08.11,0,.21.02.31.07.1.04.18.11.26.18.07.08.13.17.17.28.04.11.06.22.06.35h-.57s0-.09-.02-.13c-.01-.04-.03-.07-.05-.09-.02-.02-.05-.04-.07-.05s-.05-.02-.08-.02c0,0-.02,0-.03,0,0,0-.02,0-.03,0-.04.01-.08.03-.11.05-.03.02-.05.05-.07.08-.02.03-.03.06-.04.1,0,.03-.01.07-.01.11,0,.06,0,.12.03.18.02.06.05.12.08.16.03.05.08.09.12.12s.1.05.16.04h.75s0,.56,0,.56Z"/>
    <path class="st10" d="M58.26,55.92s0,.07,0,.1c0,.03,0,.07,0,.12h.31v.57h-.37c-.01.07-.03.14-.06.21-.03.07-.06.13-.08.18-.04.06-.09.11-.14.16-.06.05-.12.09-.19.13-.07.03-.15.06-.24.08-.09.02-.18.03-.28.03-.06,0-.12,0-.19,0-.07,0-.14-.02-.21-.03v-.58c.07.03.14.05.2.06.07.02.13.02.19.02s.11,0,.16-.02c.05-.01.1-.03.14-.06.04-.03.08-.06.11-.1.03-.04.05-.09.06-.15h0c0-.09.01-.19.02-.29,0-.1,0-.21,0-.32v-.08s0-.06,0-.08v-.8h.56v.87Z"/>
    <path class="st0" d="M59.38,54.11v1.79c0,.11-.02.22-.07.31-.05.1-.11.18-.18.25-.08.07-.17.13-.27.17-.1.04-.21.06-.33.06v-.57s.07,0,.1-.02c.03-.01.06-.03.09-.05.03-.02.05-.05.06-.08.02-.03.02-.07.02-.1v-1.78h.57Z"/>
  </g>
</svg>